<svg width="25" height="24" viewBox="0 0 25 24" fill="none" xmlns="http://www.w3.org/2000/svg">
<path d="M14.7222 19.7779H4.9C4.05992 19.7779 3.63988 19.7779 3.31901 19.6144C3.03677 19.4706 2.8073 19.2412 2.66349 18.9589C2.5 18.638 2.5 18.218 2.5 17.3779V6.62192C2.5 5.78185 2.5 5.36181 2.66349 5.04094C2.8073 4.75869 3.03677 4.52922 3.31901 4.38541C3.63988 4.22192 4.05992 4.22192 4.9 4.22192H8.13904C8.51475 4.22192 8.70261 4.22192 8.87312 4.27371C9.02408 4.31956 9.16451 4.39472 9.28639 4.4949C9.42406 4.60806 9.52825 4.76437 9.73664 5.077L10.8189 6.70063C11.0273 7.01325 11.1315 7.16956 11.2692 7.28272C11.391 7.3829 11.5315 7.45807 11.6824 7.50392C11.8529 7.5557 12.0408 7.5557 12.4165 7.5557H16.9449C17.6173 7.5557 17.9535 7.5557 18.2201 7.66155C18.6042 7.81402 18.9083 8.11817 19.0608 8.50222C19.1667 8.76884 19.1667 9.10505 19.1667 9.77748V9.77748M9.16667 14.2219H16.9444" stroke="#333333" stroke-linecap="round"/>
<path d="M5.28631 11.4187C5.48302 10.8286 5.58137 10.5335 5.7638 10.3154C5.9249 10.1227 6.13179 9.9736 6.36549 9.88169C6.63014 9.77761 6.94117 9.77762 7.56323 9.77763L19.1703 9.77794C20.2945 9.77797 20.8566 9.77799 21.2255 10.0133C21.5485 10.2193 21.7804 10.5411 21.8737 10.9127C21.9803 11.3371 21.8025 11.8704 21.447 12.9369L19.7137 18.137C19.517 18.7271 19.4186 19.0222 19.2362 19.2403C19.0751 19.4329 18.8682 19.582 18.6345 19.674C18.3699 19.778 18.0589 19.778 17.4368 19.778H5.82977C4.70557 19.778 4.14347 19.778 3.77449 19.5427C3.4515 19.3367 3.21958 19.0149 3.12628 18.6434C3.01969 18.2189 3.19743 17.6856 3.55293 16.6191L5.28631 11.4187Z" stroke="#333333"/>
</svg>
