<svg width="16" height="16" viewBox="0 0 16 16" fill="none" xmlns="http://www.w3.org/2000/svg">
<path d="M12.5 4.8125L12.995 5.30747L13.49 4.8125L12.995 4.31753L12.5 4.8125ZM9.6875 11.7C10.0741 11.7 10.3875 11.3866 10.3875 11C10.3875 10.6134 10.0741 10.3 9.6875 10.3L9.6875 11.7ZM10.1825 8.11997L12.995 5.30747L12.005 4.31753L9.19253 7.13002L10.1825 8.11997ZM12.995 4.31753L10.1825 1.50502L9.19253 2.49497L12.005 5.30747L12.995 4.31753ZM12.5 4.1125L6.59375 4.1125L6.59375 5.5125L12.5 5.5125L12.5 4.1125ZM6.59375 11.7L9.6875 11.7L9.6875 10.3L6.59375 10.3L6.59375 11.7ZM2.8 7.90625C2.8 10.0015 4.49852 11.7 6.59375 11.7L6.59375 10.3C5.27172 10.3 4.2 9.22828 4.2 7.90625L2.8 7.90625ZM6.59375 4.1125C4.49852 4.1125 2.8 5.81102 2.8 7.90625L4.2 7.90625C4.2 6.58422 5.27172 5.5125 6.59375 5.5125L6.59375 4.1125Z" fill="#787D8B"/>
</svg>
