<svg width="24" height="24" viewBox="0 0 24 24" fill="none" xmlns="http://www.w3.org/2000/svg">
<path d="M5.8125 8.625L3.28103 11.1565C2.96972 11.4678 2.81406 11.6234 2.70275 11.8051C2.60406 11.9661 2.53133 12.1417 2.48723 12.3254C2.4375 12.5325 2.4375 12.7527 2.4375 13.1929V18.12C2.4375 19.1281 2.4375 19.6321 2.63369 20.0172C2.80626 20.3559 3.08163 20.6312 3.42032 20.8038C3.80536 21 4.30941 21 5.3175 21H18.6825C19.6906 21 20.1946 21 20.5797 20.8038C20.9184 20.6312 21.1937 20.3559 21.3663 20.0172C21.5625 19.6321 21.5625 19.1281 21.5625 18.12V13.1929C21.5625 12.7527 21.5625 12.5325 21.5128 12.3254C21.4687 12.1417 21.3959 11.9661 21.2973 11.8051C21.1859 11.6234 21.0303 11.4678 20.719 11.1565L18.1875 8.625" stroke="#2449DC"/>
<path d="M21.5625 14.25H18.504C17.8083 14.25 17.4604 14.25 17.1985 14.4388C16.9367 14.6275 16.8267 14.9575 16.6067 15.6175L16.3933 16.2575C16.1733 16.9175 16.0633 17.2475 15.8015 17.4362C15.5396 17.625 15.1917 17.625 14.496 17.625H9.50402C8.8083 17.625 8.46044 17.625 8.19855 17.4362C7.93666 17.2475 7.82666 16.9175 7.60665 16.2575L7.39335 15.6175C7.17334 14.9575 7.06334 14.6275 6.80145 14.4388C6.53956 14.25 6.1917 14.25 5.49598 14.25H2.4375" stroke="#2449DC"/>
<path d="M18.1875 14.25V7.03774C18.1875 6.79315 18.1875 6.67086 18.1599 6.55577C18.1354 6.45373 18.095 6.35619 18.0401 6.26672C17.9783 6.1658 17.8918 6.07932 17.7189 5.90637L15.2811 3.46863C15.1082 3.29568 15.0217 3.2092 14.9208 3.14736C14.8313 3.09253 14.7338 3.05213 14.6317 3.02763C14.5166 3 14.3943 3 14.1498 3H8.2125C7.37242 3 6.95238 3 6.63151 3.16349C6.34927 3.3073 6.1198 3.53677 5.97599 3.81901C5.8125 4.13988 5.8125 4.55992 5.8125 5.4V14.25" stroke="#2449DC"/>
<path d="M13.6875 3L13.6875 5.9C13.6875 6.46005 13.6875 6.74008 13.7965 6.95399C13.8924 7.14215 14.0453 7.29513 14.2335 7.39101C14.4474 7.5 14.7274 7.5 15.2875 7.5L18.1875 7.5" stroke="#2449DC"/>
</svg>
