<svg width="24" height="24" viewBox="0 0 24 24" fill="none" xmlns="http://www.w3.org/2000/svg">
<path d="M9 5.75C9 6.14397 9.0776 6.53407 9.22836 6.89805C9.37913 7.26203 9.6001 7.59274 9.87868 7.87132C10.1573 8.1499 10.488 8.37087 10.852 8.52164C11.2159 8.6724 11.606 8.75 12 8.75C12.394 8.75 12.7841 8.6724 13.1481 8.52164C13.512 8.37087 13.8427 8.1499 14.1213 7.87132C14.3999 7.59274 14.6209 7.26203 14.7716 6.89805C14.9224 6.53407 15 6.14396 15 5.75C15 5.35603 14.9224 4.96593 14.7716 4.60195C14.6209 4.23797 14.3999 3.90725 14.1213 3.62868C13.8427 3.3501 13.512 3.12912 13.148 2.97836C12.7841 2.8276 12.394 2.75 12 2.75C11.606 2.75 11.2159 2.8276 10.8519 2.97836C10.488 3.12913 10.1573 3.3501 9.87868 3.62868C9.6001 3.90726 9.37912 4.23797 9.22836 4.60195C9.0776 4.96593 9 5.35604 9 5.75L9 5.75Z" stroke="#333333"/>
<path d="M4.43806 13.6515C4.09687 13.8485 3.79783 14.1107 3.558 14.4233C3.31817 14.7358 3.14225 15.0926 3.04028 15.4731C2.93831 15.8537 2.9123 16.2506 2.96372 16.6412C3.01515 17.0318 3.143 17.4084 3.33998 17.7496C3.53696 18.0908 3.79922 18.3898 4.11177 18.6296C4.42433 18.8695 4.78106 19.0454 5.1616 19.1474C5.54214 19.2493 5.93904 19.2753 6.32964 19.2239C6.72023 19.1725 7.09687 19.0446 7.43806 18.8477C7.77924 18.6507 8.07829 18.3884 8.31812 18.0759C8.55795 17.7633 8.73387 17.4066 8.83583 17.026C8.9378 16.6455 8.96381 16.2486 8.91239 15.858C8.86097 15.4674 8.73312 15.0908 8.53613 14.7496C8.33915 14.4084 8.07689 14.1094 7.76434 13.8695C7.45179 13.6297 7.09505 13.4538 6.71451 13.3518C6.33397 13.2498 5.93707 13.2238 5.54648 13.2752C5.15588 13.3267 4.77924 13.4545 4.43806 13.6515L4.43806 13.6515Z" stroke="#333333"/>
<path d="M19.5619 13.6515C19.9031 13.8485 20.2022 14.1107 20.442 14.4233C20.6818 14.7359 20.8578 15.0926 20.9597 15.4731C21.0617 15.8537 21.0877 16.2506 21.0363 16.6412C20.9849 17.0318 20.857 17.4084 20.66 17.7496C20.463 18.0908 20.2008 18.3898 19.8882 18.6296C19.5757 18.8695 19.2189 19.0454 18.8384 19.1474C18.4579 19.2493 18.061 19.2753 17.6704 19.2239C17.2798 19.1725 16.9031 19.0446 16.5619 18.8477C16.2208 18.6507 15.9217 18.3884 15.6819 18.0759C15.4421 17.7633 15.2661 17.4066 15.1642 17.026C15.0622 16.6455 15.0362 16.2486 15.0876 15.858C15.139 15.4674 15.2669 15.0908 15.4639 14.7496C15.6609 14.4084 15.9231 14.1094 16.2357 13.8695C16.5482 13.6297 16.9049 13.4538 17.2855 13.3518C17.666 13.2498 18.0629 13.2238 18.4535 13.2752C18.8441 13.3267 19.2208 13.4545 19.5619 13.6515L19.5619 13.6515Z" stroke="#333333"/>
<path fill-rule="evenodd" clip-rule="evenodd" d="M9.00254 5.87533C9.0008 5.83372 8.99993 5.79203 8.99993 5.75031C8.99993 5.40294 9.06026 5.05857 9.17787 4.73248C9.03301 4.78346 8.8894 4.83843 8.74719 4.89733C7.71592 5.3245 6.77889 5.9506 5.98959 6.7399C5.20029 7.5292 4.57419 8.46623 4.14702 9.4975C3.71986 10.5288 3.5 11.6341 3.5 12.7503C3.5 13.2765 3.54885 13.8002 3.64523 14.3148C3.86884 14.0499 4.13691 13.8255 4.43774 13.6518C4.47388 13.6309 4.51042 13.6109 4.54733 13.5915C4.51586 13.3128 4.5 13.0319 4.5 12.7503C4.5 11.7654 4.69399 10.7901 5.0709 9.88018C5.44781 8.97024 6.00026 8.14345 6.6967 7.44701C7.36051 6.78319 8.14275 6.2502 9.00254 5.87533ZM14.9973 5.87528C15.8572 6.25014 16.6395 6.78316 17.3033 7.447C17.9997 8.14344 18.5522 8.97023 18.9291 9.88018C19.306 10.7901 19.5 11.7654 19.5 12.7503C19.5 13.032 19.4841 13.3128 19.4527 13.5916C19.4895 13.6109 19.526 13.631 19.5621 13.6518C19.863 13.8255 20.1311 14.05 20.3547 14.315C20.4511 13.8003 20.5 13.2765 20.5 12.7503C20.5 11.6341 20.2801 10.5288 19.853 9.49749C19.4258 8.46623 18.7997 7.52919 18.0104 6.7399C17.2211 5.9506 16.2841 5.32449 15.2528 4.89733C15.1105 4.8384 14.9669 4.78343 14.822 4.73242C14.9396 5.05854 14.9999 5.40292 14.9999 5.7503C14.9999 5.79201 14.9991 5.83368 14.9973 5.87528ZM17.533 19.2029C17.1916 19.1417 16.8631 19.0217 16.5621 18.848C16.5261 18.8272 16.4906 18.8056 16.4555 18.7834C15.9665 19.1445 15.4343 19.4457 14.8701 19.6794C13.9602 20.0563 12.9849 20.2503 12 20.2503C11.0151 20.2503 10.0398 20.0563 9.12988 19.6794C8.56568 19.4457 8.03345 19.1445 7.54443 18.7834C7.50935 18.8056 7.47378 18.8272 7.43775 18.848C7.13681 19.0217 6.80829 19.1417 6.46694 19.2028C7.14728 19.7862 7.91668 20.2593 8.74719 20.6033C9.77846 21.0304 10.8838 21.2503 12 21.2503C13.1162 21.2503 14.2215 21.0304 15.2528 20.6033C16.0833 20.2593 16.8527 19.7862 17.533 19.2029Z" fill="#333333"/>
</svg>
