<svg width="24" height="24" viewBox="0 0 24 24" fill="none" xmlns="http://www.w3.org/2000/svg">
<path d="M2.90039 8.26667C2.90039 7.24687 2.90145 6.53232 2.97404 5.99244C3.04469 5.46695 3.17475 5.18243 3.37878 4.97839C3.58282 4.77436 3.86734 4.6443 4.39283 4.57365C4.93271 4.50106 5.64726 4.5 6.66706 4.5H17.3337C18.3535 4.5 19.0681 4.50106 19.6079 4.57365C20.1334 4.6443 20.418 4.77436 20.622 4.97839C20.826 5.18243 20.9561 5.46695 21.0267 5.99244C21.0993 6.53232 21.1004 7.24687 21.1004 8.26667V17.3667H2.90039V8.26667Z" stroke="#1C6AED"/>
<path d="M3.1115 17.3667C2.44262 17.3667 1.90039 17.9089 1.90039 18.5778C1.90039 19.6394 2.761 20.5 3.82261 20.5H20.1782C21.2398 20.5 22.1004 19.6394 22.1004 18.5778C22.1004 17.9089 21.5582 17.3667 20.8893 17.3667H3.1115Z" stroke="#1C6AED"/>
</svg>
