<svg width="24" height="24" viewBox="0 0 24 24" fill="none" xmlns="http://www.w3.org/2000/svg">
<path d="M9 5.74988C9 6.14384 9.0776 6.53395 9.22836 6.89793C9.37913 7.26191 9.6001 7.59262 9.87868 7.8712C10.1573 8.14977 10.488 8.37075 10.852 8.52152C11.2159 8.67228 11.606 8.74988 12 8.74988C12.394 8.74988 12.7841 8.67228 13.1481 8.52152C13.512 8.37075 13.8427 8.14977 14.1213 7.8712C14.3999 7.59262 14.6209 7.2619 14.7716 6.89793C14.9224 6.53395 15 6.14384 15 5.74988C15 5.35591 14.9224 4.9658 14.7716 4.60183C14.6209 4.23785 14.3999 3.90713 14.1213 3.62856C13.8427 3.34998 13.512 3.129 13.148 2.97824C12.7841 2.82747 12.394 2.74988 12 2.74988C11.606 2.74988 11.2159 2.82748 10.8519 2.97824C10.488 3.129 10.1573 3.34998 9.87868 3.62856C9.6001 3.90713 9.37912 4.23785 9.22836 4.60183C9.0776 4.96581 9 5.35591 9 5.74988L9 5.74988Z" stroke="#1C6AED"/>
<path d="M4.43806 13.6514C4.09687 13.8484 3.79783 14.1106 3.558 14.4232C3.31817 14.7357 3.14225 15.0925 3.04028 15.473C2.93831 15.8535 2.9123 16.2504 2.96372 16.641C3.01515 17.0316 3.143 17.4083 3.33998 17.7495C3.53696 18.0906 3.79922 18.3897 4.11177 18.6295C4.42433 18.8693 4.78106 19.0453 5.1616 19.1472C5.54214 19.2492 5.93904 19.2752 6.32964 19.2238C6.72023 19.1724 7.09687 19.0445 7.43806 18.8475C7.77924 18.6506 8.07829 18.3883 8.31812 18.0757C8.55795 17.7632 8.73387 17.4065 8.83583 17.0259C8.9378 16.6454 8.96381 16.2485 8.91239 15.8579C8.86097 15.4673 8.73312 15.0906 8.53613 14.7495C8.33915 14.4083 8.07689 14.1092 7.76434 13.8694C7.45179 13.6296 7.09505 13.4536 6.71451 13.3517C6.33397 13.2497 5.93707 13.2237 5.54648 13.2751C5.15588 13.3265 4.77924 13.4544 4.43806 13.6514L4.43806 13.6514Z" stroke="#1C6AED"/>
<path d="M19.5619 13.6514C19.9031 13.8484 20.2022 14.1106 20.442 14.4232C20.6818 14.7357 20.8578 15.0925 20.9597 15.473C21.0617 15.8535 21.0877 16.2504 21.0363 16.641C20.9849 17.0316 20.857 17.4083 20.66 17.7495C20.463 18.0906 20.2008 18.3897 19.8882 18.6295C19.5757 18.8693 19.2189 19.0453 18.8384 19.1472C18.4579 19.2492 18.061 19.2752 17.6704 19.2238C17.2798 19.1724 16.9031 19.0445 16.5619 18.8475C16.2208 18.6506 15.9217 18.3883 15.6819 18.0757C15.4421 17.7632 15.2661 17.4065 15.1642 17.0259C15.0622 16.6454 15.0362 16.2485 15.0876 15.8579C15.139 15.4673 15.2669 15.0906 15.4639 14.7495C15.6609 14.4083 15.9231 14.1092 16.2357 13.8694C16.5482 13.6296 16.9049 13.4536 17.2855 13.3517C17.666 13.2497 18.0629 13.2237 18.4535 13.2751C18.8441 13.3265 19.2208 13.4544 19.5619 13.6514L19.5619 13.6514Z" stroke="#1C6AED"/>
<path fill-rule="evenodd" clip-rule="evenodd" d="M9.00254 5.87521C9.0008 5.8336 8.99993 5.79191 8.99993 5.75018C8.99993 5.40282 9.06026 5.05845 9.17787 4.73235C9.03301 4.78334 8.8894 4.8383 8.74719 4.89721C7.71592 5.32437 6.77889 5.95048 5.98959 6.73978C5.20029 7.52908 4.57419 8.46611 4.14702 9.49738C3.71986 10.5286 3.5 11.634 3.5 12.7502C3.5 13.2763 3.54885 13.8 3.64523 14.3147C3.86884 14.0498 4.13691 13.8254 4.43774 13.6517C4.47388 13.6308 4.51042 13.6107 4.54733 13.5914C4.51586 13.3127 4.5 13.0318 4.5 12.7502C4.5 11.7653 4.69399 10.79 5.0709 9.88006C5.44781 8.97012 6.00026 8.14332 6.6967 7.44688C7.36051 6.78307 8.14275 6.25008 9.00254 5.87521ZM14.9973 5.87515C15.8572 6.25002 16.6395 6.78303 17.3033 7.44688C17.9997 8.14332 18.5522 8.97011 18.9291 9.88005C19.306 10.79 19.5 11.7653 19.5 12.7502C19.5 13.0318 19.4841 13.3127 19.4527 13.5915C19.4895 13.6108 19.526 13.6308 19.5621 13.6517C19.863 13.8254 20.1311 14.0499 20.3547 14.3149C20.4511 13.8001 20.5 13.2764 20.5 12.7502C20.5 11.6339 20.2801 10.5286 19.853 9.49737C19.4258 8.4661 18.7997 7.52907 18.0104 6.73977C17.2211 5.95047 16.2841 5.32437 15.2528 4.8972C15.1105 4.83828 14.9669 4.7833 14.822 4.7323C14.9396 5.05841 14.9999 5.4028 14.9999 5.75018C14.9999 5.79189 14.9991 5.83356 14.9973 5.87515ZM17.533 19.2027C17.1916 19.1416 16.8631 19.0216 16.5621 18.8478C16.5261 18.827 16.4906 18.8055 16.4555 18.7833C15.9665 19.1444 15.4343 19.4456 14.8701 19.6793C13.9602 20.0562 12.9849 20.2502 12 20.2502C11.0151 20.2502 10.0398 20.0562 9.12988 19.6793C8.56568 19.4456 8.03345 19.1444 7.54443 18.7832C7.50935 18.8055 7.47378 18.827 7.43775 18.8478C7.13681 19.0216 6.80829 19.1415 6.46694 19.2027C7.14728 19.7861 7.91668 20.2591 8.74719 20.6032C9.77846 21.0303 10.8838 21.2502 12 21.2502C13.1162 21.2502 14.2215 21.0303 15.2528 20.6032C16.0833 20.2592 16.8527 19.7861 17.533 19.2027Z" fill="#1C6AED"/>
</svg>
